<svg xmlns="http://www.w3.org/2000/svg" version="1.1" xmlns:xlink="http://www.w3.org/1999/xlink" xmlns:svgjs="http://svgjs.dev/svgjs" width="762" height="836" preserveAspectRatio="none" viewBox="0 0 762 836">
    <g mask="url(&quot;#SvgjsMask1241&quot;)" fill="none">
        <rect width="762" height="836" x="0" y="0" fill="rgba(209, 215, 224, 1)"></rect>
        <path d="M188.73 206.66L254.55 244.66L254.55 320.66L188.73 358.66L122.91 320.66L122.91 244.66zM320.37 662.66L386.19 700.66L386.19 776.66L320.37 814.66L254.55 776.66L254.55 700.66zM649.47 320.66L715.29 358.66L715.29 434.66L649.47 472.66L583.65 434.66L583.65 358.66zM583.65 434.66L649.47 472.66L649.47 548.66L583.65 586.66L517.83 548.66L517.83 472.66zM649.47 548.66L715.29 586.66L715.29 662.66L649.47 700.66L583.65 662.66L583.65 586.66zM781.11 320.66L846.93 358.66L846.93 434.66L781.11 472.66L715.29 434.66L715.29 358.66zM781.11 548.66L846.93 586.66L846.93 662.66L781.11 700.66L715.29 662.66L715.29 586.66zM715.29 662.66L781.11 700.66L781.11 776.66L715.29 814.66L649.47 776.66L649.47 700.66z" stroke="rgba(86, 79, 111, 1)" stroke-width="2"></path>
    </g>
    <defs>
        <mask id="SvgjsMask1241">
            <rect width="762" height="836" fill="#ffffff"></rect>
        </mask>
    </defs>
</svg>